<?xml version="1.0" encoding="utf-8"?>
<!-- Generator: Adobe Illustrator 20.0.0, SVG Export Plug-In . SVG Version: 6.00 Build 0)  -->
<svg version="1.1" id="Camada_1" xmlns="http://www.w3.org/2000/svg" xmlns:xlink="http://www.w3.org/1999/xlink" x="0px" y="0px"
	 viewBox="0 0 80 80" style="enable-background:new 0 0 80 80;" xml:space="preserve">
<style type="text/css">
	.st0{fill:#F3F3F3;}
	.st1{fill:#038181;}
	.st2{font-family:'Raleway-ExtraBoldItalic';}
	.st3{font-size:10.1425px;}
</style>
<g>
	<circle class="st0" cx="40" cy="31.3" r="16.1"/>
	<path class="st1" d="M68.5,22.9L65,21.8l1.5-2.6c1.3-2.1,0.7-4.8-1.4-6.1c-0.8-0.5-1.8-0.7-2.8-0.6l-4.6,0.4l0.5-4.5
		c0.3-2.4-1.5-4.6-3.9-4.9c-1-0.1-1.9,0.1-2.8,0.6l-2,1.2L48.8,3c-0.8-2.3-3.3-3.6-5.6-2.8C42.3,0.5,41.6,1,41,1.8l-2,3L36.7,2
		c-1.5-1.9-4.3-2.2-6.2-0.6C29.7,2,29.2,2.9,29,3.9l-0.8,3.9l-4.3-1.9c-2.2-1-4.8,0-5.8,2.2C17.6,9,17.5,10,17.8,11l0.8,3.5h-2.4
		c-2.4,0-4.4,1.9-4.4,4.4c0,1,0.3,1.9,0.9,2.7l1.8,2.4l-3.3,1.3c-2.2,0.9-3.3,3.5-2.4,5.8c0.4,0.8,1,1.6,1.7,2l3.1,1.8L10.8,38
		c-1.6,1.8-1.5,4.6,0.3,6.2c0.7,0.6,1.6,1,2.6,1.1l4.3,0.4L16.9,49c-0.8,2.3,0.4,4.8,2.8,5.6c0.5,0.2,1,0.2,1.5,0.2L15.7,75
		c-0.1,0.5,0.2,1,0.7,1.2c0.1,0,0.2,0,0.2,0h0.3l5.8-1.5c0.9-0.3,2,0,2.6,0.7l4.2,4.3c0.2,0.2,0.4,0.3,0.7,0.3c0.4,0,0.8-0.3,1-0.7
		l5.4-20.1l0.7,1.1c1.2,2.1,3.9,2.8,6,1.6c0.2-0.1,0.5-0.3,0.7-0.5l4.8,17.8c0.1,0.4,0.5,0.7,1,0.7c0.3,0,0.5-0.1,0.7-0.3l4.2-4.3
		c0.7-0.7,1.7-1,2.6-0.7l5.8,1.5h0.3c0.5,0,1-0.4,1-1c0-0.1,0-0.2,0-0.2l-6.1-22.2l1.3,0.3c2.4,0.6,4.8-0.9,5.3-3.2
		c0.2-0.9,0.1-1.9-0.2-2.8l-1.8-4.2l3.8-0.8c2.4-0.5,3.9-2.8,3.4-5.2c-0.2-0.9-0.7-1.8-1.4-2.4l-1.8-1.5l3-2.1c2-1.4,2.5-4.2,1-6.2
		C70.2,23.8,69.4,23.2,68.5,22.9z M28.3,71.8c-1.8-1.6-4.2-2.3-6.5-1.8l3.4-12.8c0.5,2.4,2.8,3.9,5.2,3.4c0.3-0.1,0.7-0.2,1-0.3
		L28.3,71.8z M56.5,69.9c-1.8,0-3.6,0.6-5,1.9l-3.9-14.4l2.3,1.7c1.5,1.2,3.6,1.2,5.2,0.1l3,10.8C57.6,69.9,57,69.9,56.5,69.9z
		 M57,52.4L57,52.4V54c0,0,0,0.1,0,0.2V52.4z M40,52c-11.4,0-20.7-9.3-20.7-20.7S28.6,10.6,40,10.6s20.7,9.3,20.7,20.7
		S51.4,52,40,52L40,52z"/>
	<text transform="matrix(1 0 0 1 35.6983 26.162)" class="st1 st2 st3">2°</text>
	<text transform="matrix(1 0 0 1 25.6983 38.362)" class="st1 st2 st3">Lugar</text>
</g>
</svg>
