<?xml version="1.0" encoding="utf-8"?>
<!-- Generator: Adobe Illustrator 20.0.0, SVG Export Plug-In . SVG Version: 6.00 Build 0)  -->
<svg version="1.1" id="Camada_1" xmlns="http://www.w3.org/2000/svg" xmlns:xlink="http://www.w3.org/1999/xlink" x="0px" y="0px"
	 viewBox="0 0 108.2 114.2" style="enable-background:new 0 0 108.2 114.2;" xml:space="preserve">
<style type="text/css">
	.st0{fill:#EF4130;}
	.st1{fill:#FDB913;}
	.st2{fill:#0DB14B;}
	.st3{fill:#0089CF;}
</style>
<path class="st0" d="M108.2,0.6v113.7L53.9,67.7C99,33.9,108.2,0.6,108.2,0.6z"/>
<path class="st1" d="M18,67.7c41.1-13.3,72.1-38.6,90.2-67.1C95.9,25.8,74.9,49.6,46.5,67.7l61.7,46.5L18,67.7z"/>
<path class="st2" d="M35.8,56l2,2.4c-4.6,2.1-9.2,4-14,5.7L7.7,51c42.8-6,77.7-25.5,100.5-50.5C91.7,23.3,66.9,43.1,35.8,56z"/>
<path class="st3" d="M108.2,0.6c0,0-40.6,34.7-107.7,32.2L11,45C11,45,62.3,42.8,108.2,0.6z"/>
</svg>
