<?xml version="1.0" encoding="utf-8"?>
<!-- Generator: Adobe Illustrator 20.0.0, SVG Export Plug-In . SVG Version: 6.00 Build 0)  -->
<svg version="1.1" id="Camada_1" xmlns="http://www.w3.org/2000/svg" xmlns:xlink="http://www.w3.org/1999/xlink" x="0px" y="0px"
	 viewBox="0 0 287.7 113.8" style="enable-background:new 0 0 287.7 113.8;" xml:space="preserve">
<style type="text/css">
	.st0{fill:#0089CF;}
	.st1{fill:#EF4130;}
	.st2{fill:#FDB913;}
	.st3{fill:#0DB14B;}
</style>
<g>
	<g>
		<path class="st0" d="M126.4,38.9c2,0,3.1,1,3.1,2.7c0,1.8-1.1,2.8-3.1,2.8l-2.1,0v2.5l-0.9,0l0-8L126.4,38.9z M124.3,43.5l2.1,0
			c1.4,0,2.3-0.6,2.3-1.9c0-1.2-0.8-1.8-2.3-1.8l-2.1,0L124.3,43.5z"/>
		<path class="st0" d="M131.2,42.2c0.4-0.9,1.1-1.4,2.2-1.4l0,0.9c-1.3,0-2.1,0.8-2.2,2l0,3.2l-0.9,0l0-6l0.9,0L131.2,42.2z"/>
		<path class="st0" d="M139.2,44.3l-4.9,0c0.2,1.2,1,1.9,2.2,1.9c0.7,0,1.4-0.3,1.9-0.8l0.5,0.5c-0.6,0.6-1.4,1-2.4,1
			c-1.8,0-3-1.2-3-3s1.2-3,3-3C138.3,40.9,139.3,42.2,139.2,44.3z M138.4,43.5c-0.1-1.2-0.8-1.9-2-1.9c-1.1,0-2,0.7-2.1,1.9
			L138.4,43.5z M134.7,39.9l1.2-1.5l0.9,0l1.2,1.5l-0.8,0l-0.8-1l-0.8,1L134.7,39.9z"/>
		<path class="st0" d="M150.1,43.2l0,3.7l-0.9,0l0-3.5c0-1.1-0.6-1.7-1.7-1.7c-1.2,0-2,0.9-2,2.2l0,3l-0.9,0l0-3.5
			c0-1.1-0.6-1.7-1.7-1.7c-1.2,0-2,0.9-2,2.2l0,3l-0.9,0l0-6l0.9,0l0,1.4c0.4-0.9,1.2-1.4,2.3-1.4c1.1,0,1.9,0.6,2.2,1.6
			c0.4-1.1,1.2-1.6,2.4-1.6C149.2,40.9,150.1,41.8,150.1,43.2z"/>
		<path class="st0" d="M152.5,39.2c0,0.4-0.3,0.6-0.6,0.6c-0.3,0-0.6-0.3-0.6-0.6c0-0.4,0.3-0.6,0.6-0.6
			C152.2,38.6,152.5,38.8,152.5,39.2z M151.5,46.9l0-6l0.9,0l0,6L151.5,46.9z"/>
		<path class="st0" d="M159.5,43.9c0,1.8-1.3,3-3,3c-1.8,0-3.1-1.2-3.1-3c0-1.8,1.3-3,3-3C158.2,40.9,159.5,42.1,159.5,43.9z
			 M154.2,43.9c0,1.3,0.9,2.2,2.2,2.2c1.3,0,2.2-0.9,2.2-2.2c0-1.3-0.9-2.2-2.2-2.2C155.1,41.7,154.2,42.6,154.2,43.9z"/>
		<path class="st0" d="M168.5,46.9l-0.9,0l0-1.3c-0.4,0.8-1.3,1.3-2.3,1.3c-1.7,0-2.9-1.3-2.9-3.1c0-1.8,1.2-3,2.9-3
			c1.1,0,1.9,0.5,2.4,1.3l0-3.8l0.9,0L168.5,46.9z M167.6,43.9c0-1.3-0.9-2.3-2.2-2.3c-1.3,0-2.2,0.9-2.2,2.3c0,1.3,0.9,2.2,2.2,2.2
			C166.7,46.2,167.6,45.2,167.6,43.9z"/>
		<path class="st0" d="M175.4,44.2l-4.9,0c0.2,1.2,1,1.9,2.2,1.9c0.7,0,1.4-0.3,1.9-0.8l0.5,0.5c-0.6,0.6-1.4,1-2.4,1
			c-1.8,0-3-1.2-3-3s1.2-3,3-3C174.5,40.9,175.5,42.2,175.4,44.2z M174.6,43.5c-0.1-1.2-0.8-1.9-2-1.9c-1.1,0-2,0.7-2.1,1.9
			L174.6,43.5z"/>
		<path class="st0" d="M182.3,44.5c0,1.6-0.9,2.4-2.3,2.4c-0.9,0-1.7-0.4-2.2-1.1l0.5-0.7c0.5,0.6,1.1,0.9,1.7,0.9
			c0.9,0,1.4-0.5,1.4-1.5l0-4.7l-2.9,0l0-0.9l3.8,0L182.3,44.5z"/>
		<path class="st0" d="M189.3,43.9c0,1.8-1.3,3-3,3c-1.8,0-3-1.2-3.1-3c0-1.8,1.3-3,3-3C188.1,40.9,189.3,42.1,189.3,43.9z
			 M184.1,43.9c0,1.3,0.9,2.2,2.2,2.2c1.3,0,2.2-0.9,2.2-2.2c0-1.3-0.9-2.2-2.2-2.2C185,41.7,184.1,42.6,184.1,43.9z"/>
		<path class="st0" d="M191.2,42.2c0.4-0.9,1.1-1.4,2.2-1.4l0,0.9c-1.3,0-2.1,0.8-2.2,2l0,3.2l-0.9,0l0-6l0.9,0L191.2,42.2z"/>
		<path class="st0" d="M199.5,43.2l0,3.7l-0.9,0l0-3.5c0-1.1-0.6-1.7-1.7-1.7c-1.2,0-1.9,0.8-2,1.9l0,3.2l-0.9,0l0-6l0.9,0l0,1.3
			c0.4-0.9,1.2-1.3,2.3-1.4C198.7,40.9,199.5,41.7,199.5,43.2z"/>
		<path class="st0" d="M204.7,46c-0.5,0.7-1.2,1-2.2,1c-1.2,0-2-0.8-2-1.8c0-1.1,0.8-1.7,2.2-1.7l2,0l0-0.4c0-0.9-0.5-1.4-1.6-1.4
			c-0.7,0-1.3,0.3-1.9,0.7l-0.4-0.7c0.8-0.5,1.4-0.8,2.5-0.8c1.5,0,2.3,0.8,2.3,2.1l0,4l-0.9,0L204.7,46z M204.7,44.8l0-0.7l-1.9,0
			c-1,0-1.5,0.3-1.5,1c0,0.7,0.5,1.1,1.4,1.1C203.7,46.2,204.4,45.7,204.7,44.8z"/>
		<path class="st0" d="M207,46.9l0-8.5l0.9,0l0,8.5L207,46.9z"/>
		<path class="st0" d="M210.6,39.2c0,0.4-0.3,0.6-0.6,0.6c-0.3,0-0.6-0.3-0.6-0.6c0-0.4,0.3-0.6,0.6-0.6
			C210.3,38.5,210.6,38.8,210.6,39.2z M209.6,46.9l0-6l0.9,0l0,6L209.6,46.9z"/>
		<path class="st0" d="M215.6,41.4l-0.3,0.7c-0.5-0.3-1.1-0.5-1.6-0.5c-0.7,0-1.2,0.2-1.2,0.8c0,1.3,3.4,0.7,3.4,2.8
			c0,1.2-1.1,1.7-2.2,1.7c-0.9,0-1.7-0.3-2.3-0.8l0.3-0.7c0.5,0.5,1.3,0.8,2,0.8c0.7,0,1.3-0.3,1.3-0.9c0-1.5-3.3-0.7-3.3-2.8
			c0-1.2,1-1.6,2.1-1.6C214.4,40.8,215.1,41.1,215.6,41.4z"/>
		<path class="st0" d="M226.6,43.2l0,3.7l-0.9,0l0-3.5c0-1.1-0.6-1.7-1.7-1.7c-1.2,0-2,0.9-2,2.2l0,3l-0.9,0l0-3.5
			c0-1.1-0.6-1.7-1.7-1.7c-1.2,0-2,0.9-2,2.2l0,3l-0.9,0l0-6l0.9,0l0,1.4c0.4-0.9,1.2-1.4,2.3-1.4c1.1,0,1.9,0.6,2.2,1.6
			c0.4-1.1,1.2-1.6,2.4-1.6C225.8,40.8,226.6,41.7,226.6,43.2z"/>
		<path class="st0" d="M233.5,43.9c0,1.8-1.3,3-3,3c-1.8,0-3.1-1.2-3.1-3c0-1.8,1.3-3,3-3C232.2,40.9,233.5,42.1,233.5,43.9z
			 M228.3,43.9c0,1.3,0.9,2.2,2.2,2.2c1.3,0,2.2-0.9,2.2-2.2c0-1.3-0.9-2.2-2.2-2.2C229.2,41.7,228.3,42.6,228.3,43.9z"/>
		<path class="st0" d="M243.5,40l-0.5,0.7c-0.6-0.6-1.5-1-2.4-1c-1.8,0-3.3,1.4-3.3,3.2c0,1.7,1.5,3.2,3.3,3.2c0.9,0,1.7-0.4,2.4-1
			l0.6,0.6c-0.8,0.7-1.9,1.2-3,1.2c-2.3,0-4.1-1.8-4.1-4.1c0-2.2,1.8-4,4.2-4C241.7,38.9,242.8,39.3,243.5,40z"/>
		<path class="st0" d="M245.5,39.1c0,0.4-0.3,0.6-0.6,0.6c-0.3,0-0.6-0.3-0.6-0.6c0-0.4,0.3-0.6,0.6-0.6
			C245.2,38.5,245.5,38.8,245.5,39.1z M244.5,46.9l0-6l0.9,0l0,6L244.5,46.9z"/>
		<path class="st0" d="M252.1,44.2l-4.9,0c0.2,1.2,1,1.9,2.2,1.9c0.7,0,1.4-0.3,1.9-0.8l0.5,0.5c-0.6,0.6-1.4,1-2.4,1
			c-1.8,0-3-1.2-3-3c0-1.8,1.2-3,3-3C251.3,40.8,252.2,42.2,252.1,44.2z M251.3,43.5c-0.1-1.2-0.8-1.9-2-1.9c-1.1,0-2,0.7-2.1,1.9
			L251.3,43.5z"/>
		<path class="st0" d="M258.6,43.2l0,3.7l-0.9,0l0-3.5c0-1.1-0.6-1.7-1.7-1.7c-1.2,0-1.9,0.8-2,1.9l0,3.2l-0.9,0l0-6l0.9,0l0,1.3
			c0.4-0.9,1.2-1.3,2.3-1.4C257.8,40.8,258.6,41.7,258.6,43.2z"/>
		<path class="st0" d="M263.1,46.5c-0.4,0.3-0.9,0.4-1.4,0.5c-0.9,0-1.5-0.5-1.5-1.7l0-3.4l-0.9,0l0-0.7l0.9,0l0-1.6l0.9,0l0,1.6
			l1.9,0l0,0.7l-1.9,0l0,3.3c0,0.7,0.3,1,0.8,1c0.3,0,0.6-0.1,1-0.3L263.1,46.5z"/>
		<path class="st0" d="M264.6,39.9l-0.9,0l1.4-1.6l0.9,0.4L264.6,39.9z M263.9,46.9l0-6l0.9,0l0,6L263.9,46.9z"/>
		<path class="st0" d="M266.6,40.4c0-1.3,0.9-2,1.9-2c0.4,0,0.8,0.1,1.1,0.3l0,0.8c-0.3-0.2-0.7-0.3-1-0.3c-0.6,0-1.1,0.4-1.1,1.1
			l0,0.8l1.7,0l0,0.7l-1.7,0l0,5.1l-0.9,0l0-5.1l-0.8,0l0-0.7l0.8,0L266.6,40.4z M270,39.1c0-0.4,0.2-0.6,0.6-0.6
			c0.3,0,0.6,0.3,0.6,0.6c0,0.4-0.2,0.6-0.6,0.6C270.2,39.8,270,39.5,270,39.1z M271,40.9l0,6l-0.9,0l0-6L271,40.9z"/>
		<path class="st0" d="M277.3,41.7l-0.5,0.6c-0.5-0.4-1.1-0.7-1.8-0.7c-1.2,0-2.1,0.9-2.1,2.2c0,1.3,0.9,2.2,2.1,2.2
			c0.8,0,1.4-0.3,1.9-0.8l0.5,0.5c-0.5,0.7-1.4,1-2.4,1c-1.7,0-3-1.2-3-3s1.2-3,3-3C275.9,40.8,276.7,41.2,277.3,41.7z"/>
		<path class="st0" d="M283.6,43.9c0,1.8-1.3,3-3,3c-1.8,0-3-1.2-3.1-3c0-1.8,1.3-3,3-3C282.4,40.8,283.6,42.1,283.6,43.9z
			 M278.4,43.9c0,1.3,0.9,2.2,2.2,2.2c1.3,0,2.2-0.9,2.2-2.2c0-1.3-0.9-2.2-2.2-2.2C279.3,41.7,278.4,42.6,278.4,43.9z"/>
	</g>
	<g>
		<g>
			<path class="st0" d="M126.1,61.5c0-3.6,0-4.2,0-5c0-0.8-0.2-1.2-1-1.3c-0.2,0-0.6-0.1-0.9-0.1c-0.3,0-0.4,0-0.4-0.2
				c0-0.2,0.2-0.2,0.5-0.2c1.2,0,2.7,0.1,3.3,0.1c0.6,0,2-0.1,2.9-0.1c0.3,0,0.5,0,0.5,0.2c0,0.2-0.1,0.2-0.4,0.2
				c-0.3,0-0.4,0-0.7,0.1c-0.6,0.1-0.8,0.5-0.9,1.3c0,0.7,0,1.4,0,5l0,4.3c0,1,0.1,2.1,0.1,3.3c0,1.3-0.1,2.8-0.6,4.1
				c-0.5,1.4-1.7,3-4,4.4c-0.3,0.2-0.7,0.4-1.2,0.6c-0.2,0.1-0.4,0.1-0.5,0.1c-0.1,0-0.2-0.1-0.2-0.2c0-0.1,0.1-0.2,0.5-0.4
				c0.3-0.2,0.7-0.4,1.1-0.9c1.8-1.8,1.8-4.1,1.8-8.7L126.1,61.5z"/>
			<path class="st0" d="M131.4,64.8c0-3.4,2.4-7.8,8.6-7.8c5.2,0,8.4,2.9,8.4,7.4c0,4.6-3.3,8.1-8.6,8.1
				C133.9,72.6,131.4,68.4,131.4,64.8z M145.4,65.2c0-4.4-2.6-7.1-6-7.1c-2.3,0-5,1.2-5,6.1c0,4.1,2.3,7.3,6.2,7.3
				C142.1,71.5,145.4,70.9,145.4,65.2z"/>
			<path class="st0" d="M150.5,72.1c-0.3-0.1-0.4-0.2-0.4-0.7c0-1.1,0.1-2.3,0.1-2.6c0-0.3,0.1-0.5,0.3-0.5c0.2,0,0.2,0.2,0.2,0.3
				c0,0.3,0.1,0.7,0.2,1c0.4,1.5,2,2,3.3,2c1.8,0,2.9-1.1,2.8-2.5c0-0.9-0.2-1.7-2-2.8l-1.2-0.7c-2.4-1.4-3.2-2.8-3.2-4.5
				c0-2.4,2.3-4,5.2-4c1.3,0,2.4,0.2,2.9,0.3c0.2,0,0.3,0.1,0.3,0.3c0,0.3-0.1,0.8-0.1,2.4c0,0.4-0.1,0.6-0.3,0.6
				c-0.1,0-0.2-0.1-0.2-0.4c0-0.2-0.1-0.8-0.5-1.3c-0.3-0.4-1-0.9-2.3-0.9c-1.5,0-2.8,0.8-2.8,2.1c0,0.9,0.3,1.6,2.2,2.6l0.8,0.5
				c2.7,1.5,3.6,3,3.6,4.8c0,1.5-0.6,2.7-2.1,3.7c-1,0.7-2.3,0.8-3.4,0.8C152.6,72.6,151.4,72.5,150.5,72.1z"/>
			<path class="st0" d="M162.3,63.1c0-3,0-3.6,0-4.2c0-0.7-0.2-0.9-0.9-1.1c-0.2,0-0.5-0.1-0.8-0.1c-0.2,0-0.4-0.1-0.4-0.2
				c0-0.1,0.2-0.2,0.5-0.2c1.1,0,2.4,0,3,0c0.7,0,5.2,0,5.6,0c0.4,0,0.7-0.1,0.9-0.1c0.1,0,0.2-0.1,0.3-0.1c0.1,0,0.1,0.1,0.1,0.2
				c0,0.1-0.1,0.4-0.2,1.3c0,0.2-0.1,1.1-0.1,1.3c0,0.1-0.1,0.3-0.2,0.3c-0.1,0-0.2-0.1-0.2-0.3c0-0.1,0-0.5-0.1-0.7
				c-0.2-0.4-0.3-0.6-1.4-0.7c-0.4,0-2.8-0.1-3.2-0.1c-0.1,0-0.1,0.1-0.1,0.2l0,4.9c0,0.1,0,0.2,0.1,0.2c0.5,0,3.1,0,3.6,0
				c0.5,0,0.8-0.1,1-0.3c0.2-0.1,0.2-0.3,0.3-0.3c0.1,0,0.2,0.1,0.2,0.2c0,0.1,0,0.4-0.2,1.4c0,0.4-0.1,1.2-0.1,1.3
				c0,0.2,0,0.4-0.2,0.4c-0.1,0-0.2-0.1-0.2-0.2c0-0.2,0-0.5-0.1-0.7c-0.1-0.4-0.4-0.7-1.1-0.8c-0.4,0-2.7-0.1-3.2-0.1
				c-0.1,0-0.1,0.1-0.1,0.2l0,1.6c0,0.7,0,2.4,0,2.9c0,1.4,0.7,1.7,2.8,1.7c0.5,0,1.4,0,1.9-0.3c0.5-0.2,0.7-0.7,0.9-1.5
				c0-0.2,0.1-0.3,0.2-0.3c0.2,0,0.2,0.3,0.2,0.5c0,0.4-0.2,1.8-0.3,2.2c-0.1,0.5-0.3,0.5-1.1,0.5c-1.5,0-2.8,0-3.8-0.1
				c-1,0-1.8,0-2.4,0c-0.2,0-0.7,0-1.2,0c-0.5,0-1,0-1.4,0c-0.3,0-0.4-0.1-0.4-0.2c0-0.1,0.1-0.2,0.3-0.2c0.3,0,0.5,0,0.7-0.1
				c0.4-0.1,0.5-0.5,0.6-1.1c0.1-0.8,0.1-2.4,0.1-4.2L162.3,63.1z M169.6,53.6c0.1,0.3,0,0.4-0.1,0.4c-0.1,0-0.3,0-0.8,0
				c-1.3,0.2-3.1,0.9-4,1.4c-0.2,0.1-0.4,0.2-0.4,0.2c0,0-0.1,0-0.1-0.1c0-0.1,0.1-0.2,0.2-0.3c0.9-0.9,3.4-2.7,3.8-2.9
				c0.2-0.2,0.4-0.2,0.5-0.2c0.2,0,0.2,0.1,0.3,0.3C169.1,52.5,169.3,53,169.6,53.6z"/>
			<path class="st0" d="M181.3,55c0.1-0.4,0.2-0.6,0.4-0.6c0.2,0,0.3,0.1,0.6,0.7l6.4,13l6.4-13.2c0.2-0.4,0.3-0.6,0.5-0.6
				c0.2,0,0.3,0.2,0.4,0.7l2.1,14.3c0.2,1.5,0.4,2.2,1.1,2.4c0.7,0.2,1.1,0.2,1.4,0.2c0.2,0,0.4,0,0.4,0.2c0,0.2-0.3,0.3-0.6,0.3
				c-0.6,0-3.8,0-4.7-0.1c-0.5,0-0.7-0.1-0.7-0.3c0-0.1,0.1-0.2,0.3-0.3c0.1,0,0.2-0.4,0.1-1l-1.4-10.2l-0.1,0L188.9,71
				c-0.5,1.1-0.7,1.3-0.9,1.3c-0.2,0-0.4-0.5-0.8-1.2c-0.6-1.1-2.4-4.6-2.7-5.3c-0.2-0.5-1.6-3.2-2.4-5l-0.1,0l-1.2,9.1
				c0,0.4-0.1,0.7-0.1,1.1c0,0.4,0.3,0.7,0.7,0.7c0.4,0.1,0.7,0.1,1,0.1c0.2,0,0.4,0,0.4,0.2c0,0.2-0.2,0.3-0.6,0.3
				c-1,0-2-0.1-2.5-0.1c-0.4,0-1.6,0.1-2.3,0.1c-0.2,0-0.4,0-0.4-0.3c0-0.1,0.1-0.2,0.4-0.2c0.2,0,0.4,0,0.7-0.1
				c0.7-0.1,0.8-1.1,1-1.8L181.3,55z"/>
			<path class="st0" d="M204.1,67.3c-0.1,0-0.1,0-0.2,0.1l-1.1,2.7c-0.2,0.5-0.3,1-0.3,1.2c0,0.4,0.2,0.6,0.8,0.6l0.3,0
				c0.3,0,0.3,0.1,0.3,0.2c0,0.2-0.1,0.2-0.3,0.2c-0.7,0-1.6-0.1-2.3-0.1c-0.2,0-1.3,0.1-2.4,0.1c-0.3,0-0.4,0-0.4-0.2
				c0-0.1,0.1-0.2,0.2-0.2c0.2,0,0.4,0,0.6,0c0.9-0.1,1.3-0.7,1.7-1.8l5.4-12.4c0.2-0.6,0.4-0.8,0.6-0.8c0.3,0,0.4,0.2,0.6,0.6
				c0.5,1.1,3.9,9.1,5.2,12.2c0.8,1.8,1.4,2.1,1.8,2.1c0.3,0,0.5,0.1,0.8,0.1c0.2,0,0.3,0.1,0.3,0.2c0,0.2-0.1,0.2-0.9,0.2
				c-0.7,0-2.2,0-3.9,0c-0.4,0-0.6,0-0.6-0.2c0-0.1,0-0.2,0.3-0.2c0.1,0,0.3-0.2,0.2-0.4l-1.6-4c0-0.1-0.1-0.1-0.2-0.1L204.1,67.3z
				 M208.5,66.2c0.1,0,0.1,0,0.1-0.1l-1.9-5c0-0.1,0-0.2-0.1-0.2c-0.1,0-0.1,0.1-0.1,0.2l-2,5c0,0.1,0,0.1,0.1,0.1L208.5,66.2z"/>
			<path class="st0" d="M216.6,63.1c0-3,0-3.6,0-4.2c0-0.7-0.2-0.9-0.9-1.1c-0.2,0-0.5-0.1-0.8-0.1c-0.2,0-0.4-0.1-0.4-0.2
				c0-0.1,0.2-0.2,0.5-0.2c1.1,0,2.4,0,2.8,0c0.7,0,2.6,0,3.2,0c1.3,0,2.8,0.1,3.9,0.8c0.6,0.4,1.4,1.4,1.4,2.7
				c0,1.5-0.8,2.8-2.8,4.4c1.8,2.2,3.3,4,4.5,5.3c1.1,1.1,1.9,1.2,2.2,1.3c0.2,0,0.3,0,0.5,0c0.2,0,0.3,0.1,0.3,0.2
				c0,0.2-0.1,0.2-0.4,0.2l-2,0c-1.1,0-1.7-0.1-2.2-0.4c-0.9-0.4-1.7-1.4-2.8-2.9c-0.8-1.1-1.7-2.4-1.9-2.7
				c-0.1-0.1-0.2-0.1-0.4-0.1l-1.8,0c-0.1,0-0.2,0-0.2,0.2l0,0.3c0,1.8,0,3.4,0.1,4.2c0.1,0.6,0.2,1,0.8,1.1c0.3,0,0.7,0.1,1,0.1
				c0.2,0,0.3,0.1,0.3,0.2c0,0.1-0.2,0.2-0.4,0.2c-1.2,0-2.9-0.1-3.2-0.1c-0.4,0-1.7,0.1-2.5,0.1c-0.3,0-0.4-0.1-0.4-0.2
				c0-0.1,0.1-0.2,0.3-0.2c0.3,0,0.5,0,0.7-0.1c0.4-0.1,0.5-0.5,0.6-1.1c0.1-0.8,0.1-2.4,0.1-4.2L216.6,63.1z M219.2,64.6
				c0,0.2,0,0.3,0.2,0.4c0.4,0.1,1.1,0.2,1.6,0.2c0.8,0,1.1-0.1,1.4-0.3c0.6-0.4,1.3-1.3,1.3-2.9c0-2.8-1.9-3.5-3.1-3.5
				c-0.5,0-1,0-1.2,0.1c-0.1,0-0.2,0.1-0.2,0.3L219.2,64.6z"/>
			<path class="st0" d="M240.5,72.1c-0.7,0.3-2.2,0.5-3.2,0.5c-6,0-8.4-4.3-8.4-7.9c0-3.2,2.5-7.7,8.5-7.7c4.9,0,8.4,2.9,8.4,7.5
				c0,3.5-2.3,5.7-3.5,6.5l4,2c4.3,2.1,7,2.4,8.4,2.4c1.1,0,2.6-0.1,4-0.6c0.1,0,0.2-0.1,0.3-0.1c0.1,0,0.2,0.1,0.2,0.2
				c0,0.1-0.1,0.2-0.3,0.3c-1.2,0.6-3.6,1.6-6.6,1.6c-3.2,0-5.3-0.7-8.7-2.7L240.5,72.1z M242.7,65.1c0-4.7-3-7-5.8-7
				c-2.7,0-5,1.6-5,6.2c0,4.7,2.9,7.3,6.2,7.3C239.7,71.5,242.7,70.8,242.7,65.1z"/>
			<path class="st0" d="M248.1,63.1c0-3,0-3.6,0-4.2c0-0.7-0.2-0.9-0.9-1.1c-0.2,0-0.5-0.1-0.8-0.1c-0.2,0-0.3-0.1-0.4-0.2
				c0-0.1,0.1-0.2,0.4-0.2c1.1,0,2.5,0,3.1,0c0.5,0,1.9,0,2.6,0c0.3,0,0.4,0,0.4,0.2c0,0.1-0.1,0.2-0.3,0.2c-0.2,0-0.3,0-0.6,0.1
				c-0.5,0.1-0.7,0.4-0.7,1.1c0,0.6,0,1.2,0,4.2l0,2.8c0,2.9,0.6,4,1.6,4.8c0.9,0.7,1.9,0.8,2.6,0.8c0.9,0,1.9-0.3,2.8-1.1
				c1.1-1.1,1.2-2.8,1.2-4.8l0-2.5c0-3,0-3.6,0-4.2c0-0.7-0.2-0.9-0.9-1.1c-0.2,0-0.5-0.1-0.7-0.1c-0.2,0-0.3-0.1-0.4-0.2
				c0-0.1,0.1-0.2,0.4-0.2c1.1,0,2.4,0,2.5,0c0.2,0,1.6,0,2.4,0c0.3,0,0.4,0,0.4,0.2c0,0.1-0.1,0.2-0.4,0.2c-0.2,0-0.3,0-0.6,0.1
				c-0.6,0.1-0.7,0.4-0.7,1.1c0,0.6,0,1.2,0,4.2l0,2.1c0,2.2-0.2,4.6-2,6c-1.4,1.2-3,1.4-4.3,1.4c-1.1,0-3.2,0-4.7-1.4
				c-1.1-0.9-1.9-2.4-1.9-5.3L248.1,63.1z"/>
			<path class="st0" d="M264.9,63.1c0-3,0-3.6,0-4.2c0-0.7-0.2-0.9-0.9-1.1c-0.2,0-0.5-0.1-0.8-0.1c-0.2,0-0.4-0.1-0.4-0.2
				c0-0.1,0.2-0.2,0.5-0.2c1.1,0,2.4,0,3,0c0.7,0,5.2,0,5.6,0c0.4,0,0.7-0.1,0.9-0.1c0.1,0,0.2-0.1,0.3-0.1c0.1,0,0.1,0.1,0.1,0.2
				c0,0.1-0.1,0.4-0.2,1.3c0,0.2-0.1,1.1-0.1,1.3c0,0.1-0.1,0.3-0.2,0.3c-0.1,0-0.2-0.1-0.2-0.3c0-0.1,0-0.5-0.1-0.7
				c-0.2-0.3-0.3-0.6-1.4-0.7c-0.4,0-2.8-0.1-3.2-0.1c-0.1,0-0.1,0.1-0.1,0.2l0,4.9c0,0.1,0,0.2,0.1,0.2c0.5,0,3.1,0,3.6,0
				c0.5,0,0.8-0.1,1-0.3c0.2-0.1,0.2-0.3,0.3-0.3s0.2,0.1,0.2,0.2c0,0.1,0,0.4-0.2,1.4c0,0.4-0.1,1.2-0.1,1.3c0,0.2,0,0.4-0.2,0.4
				c-0.1,0-0.2-0.1-0.2-0.2c0-0.2,0-0.5-0.1-0.7c-0.1-0.4-0.4-0.7-1.1-0.8c-0.4,0-2.7-0.1-3.2-0.1c-0.1,0-0.1,0.1-0.1,0.2l0,1.6
				c0,0.7,0,2.4,0,2.9c0,1.4,0.7,1.7,2.8,1.7c0.5,0,1.4,0,1.9-0.3c0.5-0.2,0.7-0.7,0.9-1.5c0-0.2,0.1-0.3,0.2-0.3
				c0.2,0,0.2,0.3,0.2,0.5c0,0.4-0.2,1.8-0.3,2.2c-0.1,0.5-0.3,0.5-1.1,0.5c-1.5,0-2.8,0-3.8-0.1c-1,0-1.8,0-2.4,0
				c-0.2,0-0.7,0-1.2,0c-0.5,0-1,0-1.4,0c-0.3,0-0.4-0.1-0.4-0.2c0-0.1,0.1-0.2,0.3-0.2c0.3,0,0.5,0,0.7-0.1
				c0.4-0.1,0.5-0.5,0.6-1.1c0.1-0.8,0.1-2.4,0.1-4.2L264.9,63.1z"/>
			<path class="st0" d="M275.8,72.1c-0.3-0.1-0.4-0.2-0.4-0.7c0-1.1,0.1-2.3,0.1-2.6c0-0.3,0.1-0.5,0.3-0.5c0.2,0,0.2,0.2,0.2,0.3
				c0,0.3,0.1,0.7,0.2,1c0.4,1.5,2,2,3.3,2c1.8,0,2.9-1.1,2.9-2.5c0-0.9-0.2-1.7-2-2.8l-1.2-0.7c-2.4-1.4-3.2-2.8-3.2-4.5
				c0-2.4,2.3-4,5.2-4c1.3,0,2.4,0.2,2.9,0.3c0.2,0,0.3,0.1,0.3,0.3c0,0.3-0.1,0.8-0.1,2.4c0,0.4-0.1,0.6-0.3,0.6
				c-0.1,0-0.2-0.1-0.2-0.4c0-0.2-0.1-0.8-0.5-1.3c-0.3-0.4-1-0.9-2.3-0.9c-1.5,0-2.8,0.8-2.8,2.1c0,0.9,0.3,1.6,2.2,2.6l0.8,0.5
				c2.7,1.5,3.6,3,3.6,4.8c0,1.5-0.6,2.7-2.1,3.7c-1,0.7-2.3,0.8-3.4,0.8C278,72.6,276.7,72.5,275.8,72.1z"/>
			<path class="st0" d="M125.6,86.4c0-3,0-3.6,0-4.2c0-0.7-0.2-0.9-0.9-1.1c-0.2,0-0.5-0.1-0.8-0.1c-0.2,0-0.4-0.1-0.4-0.2
				c0-0.1,0.2-0.2,0.5-0.2c1.1,0,2.4,0,3,0c0.6,0,2.1,0,3.3,0c2.6,0,6,0,8.3,2.3c1,1,1.9,2.7,1.9,5c0,2.5-1.1,4.4-2.2,5.5
				c-0.9,0.9-3.1,2.3-6.9,2.3c-0.7,0-1.6-0.1-2.5-0.1c-0.8-0.1-1.6-0.1-2.1-0.1c-0.2,0-0.7,0-1.2,0c-0.5,0-1,0-1.4,0
				c-0.3,0-0.4-0.1-0.4-0.2c0-0.1,0.1-0.2,0.3-0.2c0.3,0,0.5,0,0.7-0.1c0.4-0.1,0.5-0.5,0.6-1.1c0.1-0.8,0.1-2.4,0.1-4.2L125.6,86.4
				z M128.3,88.5c0,2.1,0,3.6,0,4c0,0.5,0.1,1.2,0.2,1.4c0.3,0.4,1.1,0.8,2.7,0.8c1.9,0,3.2-0.3,4.5-1.4c1.3-1.1,1.8-2.9,1.8-4.9
				c0-2.5-1-4.2-1.9-5c-1.9-1.7-4.1-1.9-5.7-1.9c-0.4,0-1.1,0-1.3,0.1c-0.2,0.1-0.3,0.2-0.3,0.4c0,0.7,0,2.3,0,3.9L128.3,88.5z"/>
			<path class="st0" d="M143.4,86.3c0-3,0-3.6,0-4.2c0-0.7-0.2-0.9-0.9-1.1c-0.2,0-0.5-0.1-0.8-0.1c-0.2,0-0.4-0.1-0.4-0.2
				c0-0.1,0.2-0.2,0.5-0.2c1.1,0,2.4,0,3,0c0.7,0,5.2,0,5.6,0c0.4,0,0.7-0.1,0.9-0.1c0.1,0,0.2-0.1,0.3-0.1c0.1,0,0.1,0.1,0.1,0.2
				c0,0.1-0.1,0.4-0.2,1.3c0,0.2-0.1,1.1-0.1,1.3c0,0.1-0.1,0.3-0.2,0.3c-0.1,0-0.2-0.1-0.2-0.3c0-0.1,0-0.5-0.1-0.7
				c-0.2-0.4-0.3-0.6-1.4-0.7c-0.4,0-2.8-0.1-3.2-0.1c-0.1,0-0.1,0.1-0.1,0.2l0,4.9c0,0.1,0,0.2,0.1,0.2c0.5,0,3.1,0,3.6,0
				c0.5,0,0.8-0.1,1-0.3c0.2-0.1,0.2-0.3,0.3-0.3c0.1,0,0.2,0.1,0.2,0.2c0,0.1,0,0.4-0.2,1.4c0,0.4-0.1,1.2-0.1,1.3
				c0,0.2,0,0.4-0.2,0.4c-0.1,0-0.2-0.1-0.2-0.2c0-0.2,0-0.5-0.1-0.7c-0.1-0.4-0.4-0.7-1.1-0.8c-0.4,0-2.7-0.1-3.2-0.1
				c-0.1,0-0.1,0.1-0.1,0.2l0,1.6c0,0.7,0,2.4,0,2.9c0,1.4,0.7,1.7,2.8,1.7c0.5,0,1.4,0,1.9-0.3c0.5-0.2,0.7-0.7,0.9-1.5
				c0-0.2,0.1-0.3,0.2-0.3c0.2,0,0.2,0.3,0.2,0.5c0,0.4-0.2,1.8-0.3,2.2c-0.1,0.5-0.3,0.5-1.1,0.5c-1.5,0-2.8,0-3.8-0.1
				c-1,0-1.8,0-2.4,0c-0.2,0-0.7,0-1.2,0c-0.5,0-1,0-1.4,0c-0.3,0-0.4-0.1-0.4-0.2c0-0.1,0.1-0.2,0.3-0.2c0.3,0,0.5,0,0.7-0.1
				c0.4-0.1,0.5-0.5,0.6-1.1c0.1-0.8,0.1-2.4,0.1-4.2L143.4,86.3z"/>
			<path class="st0" d="M162.4,78.2c0.1-0.4,0.2-0.6,0.4-0.6c0.2,0,0.3,0.1,0.6,0.7l6.4,13l6.4-13.2c0.2-0.4,0.3-0.6,0.5-0.6
				c0.2,0,0.4,0.2,0.4,0.7l2.1,14.3c0.2,1.5,0.4,2.2,1.1,2.4c0.7,0.2,1.1,0.2,1.4,0.2c0.2,0,0.4,0,0.4,0.2c0,0.2-0.3,0.3-0.6,0.3
				c-0.6,0-3.8,0-4.7-0.1c-0.5,0-0.7-0.1-0.7-0.3c0-0.1,0.1-0.2,0.3-0.3c0.1,0,0.2-0.4,0.1-1l-1.4-10.2l-0.1,0l-5.1,10.4
				c-0.5,1.1-0.7,1.3-0.9,1.3c-0.2,0-0.4-0.5-0.8-1.2c-0.6-1.1-2.4-4.6-2.7-5.3c-0.2-0.5-1.6-3.2-2.4-5l-0.1,0l-1.2,9.1
				c0,0.4-0.1,0.7-0.1,1.1c0,0.4,0.3,0.7,0.7,0.7c0.4,0.1,0.7,0.1,1,0.1c0.2,0,0.4,0,0.4,0.2c0,0.2-0.2,0.3-0.6,0.3
				c-1,0-2-0.1-2.5-0.1c-0.4,0-1.6,0.1-2.3,0.1c-0.2,0-0.4,0-0.4-0.3c0-0.1,0.1-0.2,0.4-0.2c0.2,0,0.4,0,0.7-0.1
				c0.7-0.1,0.8-1.1,1-1.8L162.4,78.2z"/>
			<path class="st0" d="M184,86.3c0-3,0-3.6,0-4.2c0-0.7-0.2-0.9-0.9-1.1c-0.2,0-0.5-0.1-0.8-0.1c-0.2,0-0.4-0.1-0.4-0.2
				c0-0.1,0.2-0.2,0.5-0.2c1.1,0,2.4,0,3,0c0.7,0,5.2,0,5.6,0c0.4,0,0.7-0.1,0.9-0.1c0.1,0,0.2-0.1,0.3-0.1c0.1,0,0.1,0.1,0.1,0.2
				c0,0.1-0.1,0.4-0.2,1.3c0,0.2-0.1,1.1-0.1,1.3c0,0.1-0.1,0.3-0.2,0.3c-0.1,0-0.2-0.1-0.2-0.3c0-0.1,0-0.5-0.1-0.7
				c-0.2-0.4-0.3-0.6-1.4-0.7c-0.4,0-2.8-0.1-3.2-0.1c-0.1,0-0.1,0.1-0.1,0.2l0,4.9c0,0.1,0,0.2,0.1,0.2c0.5,0,3.1,0,3.6,0
				c0.5,0,0.8-0.1,1-0.3c0.2-0.1,0.2-0.3,0.3-0.3c0.1,0,0.2,0.1,0.2,0.2c0,0.1,0,0.4-0.2,1.4c0,0.4-0.1,1.2-0.1,1.3
				c0,0.2,0,0.4-0.2,0.4c-0.1,0-0.2-0.1-0.2-0.2c0-0.2,0-0.5-0.1-0.7c-0.1-0.4-0.4-0.7-1.1-0.8c-0.4,0-2.7-0.1-3.2-0.1
				c-0.1,0-0.1,0.1-0.1,0.2l0,1.6c0,0.7,0,2.4,0,2.9c0,1.4,0.7,1.7,2.8,1.7c0.5,0,1.4,0,1.9-0.3c0.5-0.2,0.7-0.7,0.9-1.5
				c0-0.2,0.1-0.3,0.2-0.3c0.2,0,0.2,0.3,0.2,0.5c0,0.4-0.2,1.8-0.3,2.2c-0.1,0.5-0.3,0.5-1.1,0.5c-1.5,0-2.8,0-3.8-0.1
				c-1,0-1.8,0-2.4,0c-0.2,0-0.7,0-1.2,0c-0.5,0-1,0-1.4,0c-0.3,0-0.4-0.1-0.4-0.2c0-0.1,0.1-0.2,0.3-0.2c0.3,0,0.5,0,0.7-0.1
				c0.4-0.1,0.5-0.5,0.6-1.1c0.1-0.8,0.1-2.4,0.1-4.2L184,86.3z"/>
			<path class="st0" d="M198.4,89.8c0,2.5,0,3.8,0.4,4.2c0.4,0.3,1.1,0.4,2.7,0.4c1.1,0,1.9,0,2.4-0.6c0.3-0.3,0.5-0.8,0.5-1.2
				c0-0.2,0.1-0.3,0.2-0.3c0.1,0,0.2,0.2,0.2,0.4c0,0.2-0.1,1.7-0.3,2.3c-0.1,0.4-0.2,0.5-1.3,0.5c-1.5,0-2.7,0-3.7-0.1
				c-1,0-1.9,0-2.7,0c-0.2,0-0.7,0-1.2,0c-0.5,0-1,0-1.4,0c-0.3,0-0.4-0.1-0.4-0.2c0-0.1,0.1-0.2,0.3-0.2c0.3,0,0.5,0,0.7-0.1
				c0.4-0.1,0.5-0.5,0.6-1.1c0.1-0.8,0.1-2.4,0.1-4.2l0-3.5c0-3,0-3.6,0-4.2c0-0.7-0.2-0.9-0.9-1.1c-0.2,0-0.4-0.1-0.7-0.1
				c-0.2,0-0.4-0.1-0.4-0.2c0-0.1,0.1-0.2,0.4-0.2c1,0,2.3,0,2.8,0c0.5,0,2.2,0,3,0c0.3,0,0.4,0,0.4,0.2c0,0.1-0.1,0.2-0.4,0.2
				c-0.2,0-0.6,0-0.8,0.1c-0.6,0.1-0.7,0.4-0.8,1.1c0,0.6,0,1.2,0,4.2L198.4,89.8z"/>
			<path class="st0" d="M204.4,88.1c0-3.4,2.4-7.8,8.6-7.8c5.2,0,8.4,2.9,8.4,7.4c0,4.6-3.3,8.1-8.6,8.1
				C206.8,95.9,204.4,91.6,204.4,88.1z M218.4,88.5c0-4.4-2.6-7.1-6-7.1c-2.3,0-5,1.2-5,6.1c0,4.1,2.3,7.3,6.2,7.3
				C215.1,94.8,218.4,94.1,218.4,88.5z"/>
		</g>
	</g>
	<path class="st1" d="M106.8,0v112.7L53,66.5C97.7,33.1,106.8,0,106.8,0z"/>
	<path class="st2" d="M17.4,66.5C58.1,53.3,88.8,28.3,106.8,0c-12.2,25-33,48.6-61.2,66.5l61.2,46.1L17.4,66.5z"/>
	<path class="st3" d="M35,54.9l2,2.4c-4.5,2.1-9.2,4-13.9,5.7L7.2,50c42.4-5.9,77-25.3,99.6-50C90.4,22.5,65.9,42.2,35,54.9z"/>
	<path class="st0" d="M106.8,0c0,0-40.3,34.4-106.8,32L10.4,44C10.4,44,61.2,41.9,106.8,0z"/>
</g>
</svg>
